<svg
   width="132.29166mm"
   height="38.646618mm"
   viewBox="0 0 132.29166 38.646618"
   version="1.1"
   id="svg1587"
   inkscape:version="1.1 (c68e22c387, 2021-05-23)"
   sodipodi:docname="logo.svg"
   xmlns:inkscape="http://www.inkscape.org/namespaces/inkscape"
   xmlns:sodipodi="http://sodipodi.sourceforge.net/DTD/sodipodi-0.dtd"
   xmlns="http://www.w3.org/2000/svg"
   xmlns:svg="http://www.w3.org/2000/svg">
  <sodipodi:namedview
     id="namedview1589"
     pagecolor="#ffffff"
     bordercolor="#666666"
     borderopacity="1.0"
     inkscape:pageshadow="2"
     inkscape:pageopacity="0.0"
     inkscape:pagecheckerboard="0"
     inkscape:document-units="px"
     showgrid="false"
     inkscape:zoom="0.74457511"
     inkscape:cx="181.98298"
     inkscape:cy="445.89189"
     inkscape:window-width="2560"
     inkscape:window-height="1371"
     inkscape:window-x="0"
     inkscape:window-y="1472"
     inkscape:window-maximized="1"
     inkscape:current-layer="g207463"
     fit-margin-top="0"
     fit-margin-left="0"
     fit-margin-right="0"
     fit-margin-bottom="0" />
  <defs
     id="defs1584" />
  <g
     inkscape:label="Layer 1"
     inkscape:groupmode="layer"
     id="layer1"
     transform="translate(-23.968996,-50.153165)">
    <g
       id="g207463"
       transform="matrix(2.562842,0,0,2.562842,-70.880235,-128.18872)"
       style="stroke-width:0.390192">
      <g
         id="g207867"
         inkscape:export-filename="/home/andryo/logo.png"
         inkscape:export-xdpi="43.77"
         inkscape:export-ydpi="43.77"
         transform="matrix(1.1398749,0,0,1.1398749,-10.098017,-24.674857)">
        <g
           id="g2462-3-6"
           transform="matrix(2.0550572,0,0,2.0536728,-134.02958,-51.534253)"
           style="display:inline;stroke-width:0.189211;paint-order:fill markers stroke"
           inkscape:label="g2462-3">
          <g
             id="g164836"
             transform="translate(0.81892291)"
             style="stroke-width:0.189211">
            <g
               id="g207355"
               transform="matrix(0.60585854,0,0,0.60650002,35.548546,25.477297)"
               style="stroke-width:0.312136">
              <path
                 style="color:#000000;fill:#ef6f6c;fill-opacity:1;stroke:#ef6f6c;stroke-width:0.331606;stroke-miterlimit:4;stroke-dasharray:none;stroke-opacity:1"
                 d="m 83.991949,65.972596 c -0.229761,0.0011 -0.458941,0.0294 -0.68164,0.08594 l -0.195313,0.05078 1.367188,5.466797 0.197265,-0.04883 c 0.521891,-0.130541 0.979302,-0.402051 1.335581,-0.767772 0.499445,-0.512683 0.800149,-1.210504 0.801138,-1.96465 4.62e-4,-1.55648 -1.265785,-2.822728 -2.822266,-2.822266 z m 0.002,0.404297 c 1.337386,-3.97e-4 2.416413,1.080584 2.416016,2.417969 -0.0014,1.0328 -0.691302,1.886109 -1.650391,2.222656 L 83.61309,66.425721 c 0.126818,-0.02102 0.252095,-0.04823 0.380859,-0.04883 z"
                 id="path1361-7-9"
                 sodipodi:nodetypes="sccccscssscccss" />
              <path
                 style="color:#000000;fill:#c8c8c8;fill-opacity:1;stroke:#c8c8c8;stroke-width:0.165803;stroke-miterlimit:4;stroke-dasharray:none;stroke-opacity:1"
                 d="m 83.34375,72.017578 -0.792969,0.265625 -0.730469,-0.244141 -0.128906,0.384766 0.859375,0.285156 0.792969,-0.263672 0.792969,0.263672 0.859375,-0.285156 -0.128907,-0.384766 -0.730468,0.244141 z"
                 id="path2248-5-1" />
              <g
                 id="path3324-6-2"
                 inkscape:label="Mountain"
                 transform="matrix(0.16906935,0,0,0.16906935,30.83561,25.481525)"
                 style="stroke-width:0.312136">
                <path
                   style="color:#000000;fill:#000000;fill-opacity:0;stroke-width:0.976951;-inkscape-stroke:none"
                   d="m 297.95901,289.80307 12.44018,-49.76071 14.86693,59.46772 14.86693,-59.46772 12.44308,49.77227"
                   id="path11216" />
                <path
                   style="color:#000000;fill:#477160;fill-opacity:1;stroke:#477160;stroke-width:1.96136;stroke-miterlimit:4;stroke-dasharray:none;stroke-opacity:1"
                   d="m 309.23633,239.75195 -12.43946,49.75977 2.32422,0.58203 11.27735,-45.10742 13.70508,54.81445 h 2.32617 l 13.70312,-54.81836 11.28125,45.12305 2.32422,-0.58203 -12.44336,-49.77149 h -2.32422 l -13.70508,54.81446 -13.70312,-54.81446 z"
                   id="path11218" />
              </g>
            </g>
          </g>
        </g>
        <g
           id="g82068"
           transform="matrix(1.5511182,0,0,1.5511182,-73.685773,-19.254697)"
           style="stroke-width:0.251556">
          <g
             id="g97616"
             transform="translate(0.30734772,0.02438643)"
             style="stroke-width:0.251556">
            <text
               xml:space="preserve"
               style="font-size:5.29167px;line-height:1.25;font-family:'Droid Sans';-inkscape-font-specification:'Droid Sans';letter-spacing:-0.396875px;fill:#646464;fill-opacity:1;stroke-width:0.0665574"
               x="82.43605"
               y="69.722878"
               id="text22981"><tspan
                 sodipodi:role="line"
                 id="tspan22979"
                 style="font-style:normal;font-variant:normal;font-weight:normal;font-stretch:normal;font-size:5.29167px;font-family:monospace;-inkscape-font-specification:monospace;fill:#646464;fill-opacity:1;stroke-width:0.0665574"
                 x="82.43605"
                 y="69.722878">andryo</tspan></text>
            <text
               xml:space="preserve"
               style="font-size:5.29167px;line-height:1.25;font-family:'Droid Sans';-inkscape-font-specification:'Droid Sans';letter-spacing:-0.264583px;stroke-width:0.0665574"
               x="82.498062"
               y="74.156311"
               id="text22981-3"><tspan
                 sodipodi:role="line"
                 id="tspan22979-6"
                 style="font-style:normal;font-variant:normal;font-weight:bold;font-stretch:normal;font-size:5.29167px;font-family:monospace;-inkscape-font-specification:monospace;fill:#ef6f6c;fill-opacity:1;stroke-width:0.0665574"
                 x="82.498062"
                 y="74.156311">marzuki</tspan></text>
          </g>
        </g>
      </g>
    </g>
  </g>
</svg>
